<?xml version="1.0" encoding="UTF-8" standalone="no"?>
<!-- Created with Inkscape (http://www.inkscape.org/) -->

<svg
   xmlns:dc="http://purl.org/dc/elements/1.1/"
   xmlns:cc="http://creativecommons.org/ns#"
   xmlns:rdf="http://www.w3.org/1999/02/22-rdf-syntax-ns#"
   xmlns:svg="http://www.w3.org/2000/svg"
   xmlns="http://www.w3.org/2000/svg"
   xmlns:sodipodi="http://sodipodi.sourceforge.net/DTD/sodipodi-0.dtd"
   xmlns:inkscape="http://www.inkscape.org/namespaces/inkscape"
   width="63.75362mm"
   height="63.75568mm"
   viewBox="0 0 63.75362 63.75568"
   version="1.1"
   id="svg2567"
   inkscape:export-filename="/home/pj/Projects/space-station-14/RobustToolbox/Resources/Textures/Logo/icon-256.png"
   inkscape:export-xdpi="101.99265"
   inkscape:export-ydpi="101.99265"
   inkscape:version="0.92.4 5da689c313, 2019-01-14"
   sodipodi:docname="icon-new.svg">
  <defs
     id="defs2561" />
  <sodipodi:namedview
     id="base"
     pagecolor="#ffffff"
     bordercolor="#666666"
     borderopacity="1.0"
     inkscape:pageopacity="0"
     inkscape:pageshadow="2"
     inkscape:zoom="2.8284271"
     inkscape:cx="100.69552"
     inkscape:cy="115.69514"
     inkscape:document-units="mm"
     inkscape:current-layer="g2534"
     showgrid="false"
     inkscape:pagecheckerboard="false"
     units="mm"
     fit-margin-top="7.5"
     fit-margin-bottom="7.5"
     fit-margin-left="7.5"
     fit-margin-right="7.5"
     inkscape:window-width="1920"
     inkscape:window-height="1043"
     inkscape:window-x="0"
     inkscape:window-y="0"
     inkscape:window-maximized="1" />
  <metadata
     id="metadata2564">
    <rdf:RDF>
      <cc:Work
         rdf:about="">
        <dc:format>image/svg+xml</dc:format>
        <dc:type
           rdf:resource="http://purl.org/dc/dcmitype/StillImage" />
        <dc:title></dc:title>
      </cc:Work>
    </rdf:RDF>
  </metadata>
  <g
     inkscape:label="Layer 1"
     inkscape:groupmode="layer"
     id="layer1"
     transform="translate(-69.95288,-107.43314)">
    <g
       id="g2534"
       transform="translate(-47.33654,-77.7545)">
      <path
         sodipodi:nodetypes="sssss"
         inkscape:connector-curvature="0"
         id="rect2527-3"
         d="m 149.16623,192.68764 c -13.61329,0 -24.37681,10.76558 -24.37681,24.37887 0,13.61329 10.76352,24.37681 24.37681,24.37681 13.6133,0 24.37681,-10.76352 24.37681,-24.37681 0,-13.61329 -10.76351,-24.37887 -24.37681,-24.37887 z"
         style="opacity:1;vector-effect:none;fill:#efefef;fill-opacity:1;fill-rule:nonzero;stroke:none;stroke-width:19.05999947;stroke-linecap:butt;stroke-linejoin:miter;stroke-miterlimit:4;stroke-dasharray:none;stroke-dashoffset:0;stroke-opacity:1" />
      <path
         style="opacity:1;vector-effect:none;fill:#4a4a4a;fill-opacity:1;fill-rule:nonzero;stroke:none;stroke-width:72.03779602;stroke-linecap:butt;stroke-linejoin:miter;stroke-miterlimit:4;stroke-dasharray:none;stroke-dashoffset:0;stroke-opacity:1"
         d="m 173.73047,68.916016 -59.9668,69.365234 46.16797,-3.16797 z m -17.43164,33.890624 -4.79102,22.98633 -16.37109,1.12305 z"
         transform="matrix(0.26458333,0,0,0.26458333,117.28942,185.18764)"
         id="rect2527"
         inkscape:connector-curvature="0" />
      <path
         style="opacity:1;vector-effect:none;fill:#4a4a4a;fill-opacity:1;fill-rule:nonzero;stroke:none;stroke-width:72.03779602;stroke-linecap:butt;stroke-linejoin:miter;stroke-miterlimit:4;stroke-dasharray:none;stroke-dashoffset:0;stroke-opacity:1"
         d="m 173.29883,44.664062 -77.669924,91.187498 -4.130859,19.67188 52.962893,-3.66602 -12.52344,60.07617 c 4.24596,-0.51085 8.39689,-1.30338 12.43359,-2.35742 l 14.82813,-70.95117 -52.96484,3.66602 73.67382,-86.083989 -16.4707,78.666019 22.3125,-1.53125 -0.73047,3.51172 -22.31836,1.53125 -14.65625,70.15429 c 4.54651,-1.39052 8.93313,-3.12138 13.13672,-5.1582 l 11.14453,-53.4375 22.47656,-1.54297 5.90039,-28.30859 -22.47265,1.54297 12.7168,-60.953129 C 185.80104,54.600167 179.86975,49.213666 173.29883,44.664062 Z"
         transform="matrix(0.26458333,0,0,0.26458333,117.28942,185.18764)"
         id="path923"
         inkscape:connector-curvature="0" />
      <path
         style="opacity:1;vector-effect:none;fill:#4a4a4a;fill-opacity:1;fill-rule:nonzero;stroke:none;stroke-width:72.03779602;stroke-linecap:butt;stroke-linejoin:miter;stroke-miterlimit:4;stroke-dasharray:none;stroke-dashoffset:0;stroke-opacity:1"
         d="m 99.322266,49.640625 -41.50586,2.902344 c -3.21842,2.964766 -6.221009,6.159637 -8.982422,9.560547 L 44.751953,81.548828 65.476562,80.097656 45.736328,174.82812 c 2.914425,4.03083 6.148529,7.8103 9.669922,11.30079 L 80.441406,66.386719 59.714844,67.835938 60.40625,64.564453 84.353516,62.888672 58.056641,188.65234 c 3.296719,3.01458 6.816286,5.78907 10.537109,8.29688 z"
         transform="matrix(0.26458333,0,0,0.26458333,117.28942,185.18764)"
         id="path921"
         inkscape:connector-curvature="0" />
      <g
         id="g879"
         transform="matrix(1.2321219,0,0,1.2321219,-40.06431,-51.073839)" />
    </g>
  </g>
</svg>
